<svg xmlns="http://www.w3.org/2000/svg" viewBox="0 0 800 400" class="project-card">
  <!-- Background Gradient -->
  <defs>
    <linearGradient id="backgroundGradient" x1="0%" y1="0%" x2="100%" y2="100%">
      <stop offset="0%" stop-color="#1a365d" />
      <stop offset="100%" stop-color="#0d1a2f" />
    </linearGradient>
    <radialGradient id="glowGradient" cx="50%" cy="50%" r="50%" fx="50%" fy="50%">
      <stop offset="0%" stop-color="#4FD1C5" stop-opacity="0.8" />
      <stop offset="100%" stop-color="#3245ff" stop-opacity="0" />
    </radialGradient>
  </defs>
  <rect width="800" height="400" fill="url(#backgroundGradient)" rx="20" />
  <circle cx="400" cy="200" r="300" fill="url(#glowGradient)" opacity="0.5" />

  <!-- Futuristic Icon -->
  <g transform="translate(50, 100)">
    <circle cx="60" cy="60" r="50" fill="#4FD1C5" opacity="0.8" />
    <path d="M60 20a40 40 0 0 1 0 80 40 40 0 0 1 0-80zm0 10a30 30 0 0 0 0 60 30 30 0 0 0 0-60z" fill="#1a365d" />
    <path d="M60 30a30 30 0 0 1 0 60 30 30 0 0 1 0-60zm0 10a20 20 0 0 0 0 40 20 20 0 0 0 0-40z" fill="#4FD1C5" />
  </g>

  <!-- Title -->
  <text x="200" y="150" font-family="'Lato', sans-serif" font-size="40" fill="#ffffff" font-weight="600">
    Nebula-Singularity: SellSmart
  </text>

  <!-- Description -->
  <text x="200" y="200" font-family="'Lato', sans-serif" font-size="24" fill="#f5f5f5" width="600">
    AI-powered Amazon analytics SEO, PPC dashboard.
  </text>

  <!-- Tags -->
  <g transform="translate(200, 280)">
    <rect x="0" y="0" width="80" height="40" fill="#4FD1C5" rx="10" />
    <text x="40" y="25" font-family="'Lato', sans-serif" font-size="18" fill="#1a365d" text-anchor="middle">React</text>
  </g>
  <g transform="translate(300, 280)">
    <rect x="0" y="0" width="90" height="40" fill="#4FD1C5" rx="10" />
    <text x="45" y="25" font-family="'Lato', sans-serif" font-size="18" fill="#1a365d" text-anchor="middle">Node.js</text>
  </g>
  <g transform="translate(410, 280)">
    <rect x="0" y="0" width="60" height="40" fill="#4FD1C5" rx="10" />
    <text x="30" y="25" font-family="'Lato', sans-serif" font-size="18" fill="#1a365d" text-anchor="middle">AI</text>
  </g>
  <g transform="translate(490, 280)">
    <rect x="0" y="0" width="100" height="40" fill="#4FD1C5" rx="10" />
    <text x="50" y="25" font-family="'Lato', sans-serif" font-size="18" fill="#1a365d" text-anchor="middle">Analytics</text>
  </g>

  <!-- Live URL -->
  <text x="200" y="350" font-family="'Lato', sans-serif" font-size="20" fill="#ffffff">
    Live: <tspan fill="#4FD1C5">sellsmart.vercel.app</tspan>
  </text>

  <!-- GitHub URL -->
  <text x="200" y="380" font-family="'Lato', sans-serif" font-size="20" fill="#ffffff">
    GitHub: <tspan fill="#4FD1C5">github.com/johnwesleyquintero/sellsmart</tspan>
  </text>
</svg>