<svg width="1200" height="630" viewBox="0 0 1200 630" xmlns="http://www.w3.org/2000/svg" role="img" aria-labelledby="previewTitle previewDesc">
  <title id="previewTitle">Portfolio Website Preview - Cover Style</title>
  <desc id="previewDesc">Preview for John Wesley Quintero's portfolio website, styled similarly to the main cover image. Shows title, description, and links.</desc>

  <defs>
    <!-- Icons (Stroke-based like cover.svg) -->
    <symbol id="icon-globe" viewBox="0 0 24 24" fill="none" stroke="currentColor" stroke-width="2" stroke-linecap="round" stroke-linejoin="round">
      <circle cx="12" cy="12" r="10"></circle>
      <line x1="2" y1="12" x2="22" y2="12"></line>
      <path d="M12 2a15.3 15.3 0 0 1 4 10 15.3 15.3 0 0 1-4 10 15.3 15.3 0 0 1-4-10 15.3 15.3 0 0 1 4-10z"></path>
    </symbol>
    <symbol id="icon-github" viewBox="0 0 24 24" fill="none" stroke="currentColor" stroke-width="2" stroke-linecap="round" stroke-linejoin="round">
      <path d="M9 19c-5 1.5-5-2.5-7-3m14 6v-3.87a3.37 3.37 0 0 0-.94-2.61c3.14-.35 6.44-1.54 6.44-7A5.44 5.44 0 0 0 20 4.77 5.07 5.07 0 0 0 19.91 1S18.73.65 16 2.48a13.38 13.38 0 0 0-7 0C6.27.65 5.09 1 5.09 1A5.07 5.07 0 0 0 5 4.77a5.44 5.44 0 0 0-1.5 3.78c0 5.42 3.3 6.61 6.44 7A3.37 3.37 0 0 0 9 18.13V22"></path>
    </symbol>
    <!-- Portfolio Logo Symbol -->
    <symbol id="portfolio-logo" viewBox="0 0 40 40">
       <path d="M20 5L35 35H5L20 5Z"/>
    </symbol>

    <!-- Styles mimicking cover.svg -->
    <style type="text/css"><![CDATA[
      :root {
        --bg-color: #14213D;
        --stripe1-color: #5A33D2;
        --stripe2-color: #3C2C92;
        --primary-text-color: #FFFFFF;
        --accent-color1: #00C39A; /* Teal */
        --icon-color: #FFFFFF;
      }

      .text {
        font-family: 'Arial', sans-serif; /* Match cover font */
        fill: var(--primary-text-color);
      }

      .background { fill: var(--bg-color); }
      .stripe-1 { fill: var(--stripe1-color); }
      .stripe-2 { fill: var(--stripe2-color); }

      /* Adjusted title sizes for this context */
      .title-main {
        font-size: 60px; /* Slightly smaller than cover */
        fill: var(--accent-color1);
        font-weight: 600;
        text-anchor: end; /* Right align */
      }

      .title-sub {
        font-size: 80px; /* Slightly smaller than cover */
        font-weight: 700;
        fill: var(--primary-text-color);
        text-anchor: end; /* Right align */
      }

      .info-text {
        font-size: 28px; /* Similar to contact text */
        dominant-baseline: middle;
      }
      .info-desc {
         font-size: 24px;
         fill: #bdc1c6; /* Slightly muted white for description */
         text-anchor: end;
      }

      .info-link {
        text-decoration: underline;
        cursor: pointer;
      }

      .icon {
        stroke: var(--icon-color);
        stroke-width: 1.5; /* Match cover icon style */
        fill: none;
        stroke-linecap: round;
        stroke-linejoin: round;
        width: 32px; /* Match cover icon size */
        height: 32px;
      }

      .logo-shape {
        fill: var(--accent-color1); /* Use solid accent color */
      }

    ]]></style>
  </defs>

  <!-- Background (Copied from cover.svg, adjusted dimensions) -->
  <rect width="100%" height="100%" class="background"/>
  <g id="decorative-stripes">
    <title>Decorative background stripes</title>
    <!-- Adjusted points for 1200x630 aspect ratio -->
    <polygon points="0,0 400,0 0,400" class="stripe-1"/>
    <polygon points="0,200 600,0 200,630 0,630" class="stripe-2"/>
  </g>

  <!-- Portfolio Logo (Top Right) -->
  <g id="portfolio-logo-instance" transform="translate(1050, 50) scale(1.8)">
    <title>Portfolio Logo</title>
    <use href="#portfolio-logo" class="logo-shape"/>
  </g>

  <!-- Main Text Block (Right Aligned) -->
  <g id="main-title" transform="translate(1100, 200)"> <!-- Positioned near right edge -->
    <title>Main Title: Portfolio Website</title>
    <text x="0" y="0" class="text title-main">PORTFOLIO</text>
    <text x="0" y="80" class="text title-sub">WEBSITE</text>
  </g>

  <!-- Info Block (Right Aligned, below title) -->
  <g id="project-info" transform="translate(1100, 350)"> <!-- Positioned below title -->
    <title>Project Information</title>

    <!-- Description -->
    <text x="0" y="0" class="text info-desc">
      <tspan x="0" dy="0">Modern portfolio showcasing projects,</tspan>
      <tspan x="0" dy="1.2em">skills, &amp; Amazon free tools.</tspan>
    </text>

    <!-- Live Link -->
    <g class="info-item" transform="translate(-450, 80)"> <!-- Position relative to right edge (1100) -->
      <title>Live Site</title>
      <use href="#icon-globe" class="icon" x="0" y="-16"/>
      <text x="50" y="0" class="text info-text info-link">wesleyquintero.vercel.app</text>
    </g>

    <!-- GitHub Link -->
    <g class="info-item" transform="translate(-450, 130)"> <!-- Position relative to right edge (1100) -->
      <title>GitHub Repository</title>
      <use href="#icon-github" class="icon" x="0" y="-16"/>
      <text x="50" y="0" class="text info-text info-link">github.com/johnwesleyquintero/portfolio</text>
    </g>
  </g>

</svg>
