<svg width="1200" height="630" viewBox="0 0 1200 630" fill="none" xmlns="http://www.w3.org/2000/svg">
  <rect width="1200" height="630" fill="#232F3E"/>
  <!-- SEO-themed icon: Magnifying glass -->
  <path d="M600 330C600 367.614 627.386 395 665 395C702.614 395 730 367.614 730 330C730 292.386 702.614 265 665 265C627.386 265 600 292.386 600 330ZM665 280C694.33 280 718 303.67 718 330C718 356.33 694.33 380 665 380C635.67 380 612 356.33 612 330C612 303.67 635.67 280 665 280Z" fill="#FF9900"/>
  <path d="M700 400L730 430" stroke="#FF9900" stroke-width="4" stroke-linecap="round"/>
  <rect x="450" y="300" width="300" height="180" rx="8" fill="#FF9900" opacity="0.1"/>
  <text x="600" y="550" font-family="Arial, sans-serif" font-size="24" fill="white" text-anchor="middle">10 Advanced Amazon SEO Techniques That Actually Work in 2025</text>
</svg>