<svg xmlns='http://www.w3.org/2000/svg' viewBox='0 0 900 600'>
  <defs>
    <!-- Consistent Gradients -->
    <linearGradient id="primaryGrad" x1="0%" y1="0%" x2="100%" y2="100%">
      <stop offset="0%" stop-color="#3B82F6"/>
      <stop offset="100%" stop-color="#6366F1"/>
    </linearGradient>
    <linearGradient id="secondaryGrad" x1="0%" y1="0%" x2="100%" y2="100%">
      <stop offset="0%" stop-color="#10B981"/>
      <stop offset="100%" stop-color="#059669"/>
    </linearGradient>
    <linearGradient id="accentGrad" x1="0%" y1="0%" x2="100%" y2="100%">
      <stop offset="0%" stop-color="#F59E0B"/>
      <stop offset="100%" stop-color="#D97706"/>
    </linearGradient>
    
    <!-- Shared Styles -->
    <style>
      .component {
        filter: drop-shadow(0 4px 6px rgba(0,0,0,0.1));
      }
      .component-rect {
        rx: 12;
        ry: 12;
      }
      .label {
        font-family: 'Inter', sans-serif;
        font-size: 16px;
        font-weight: 600;
        fill: white;
        text-anchor: middle;
      }
      .subtext {
        font-family: 'Inter', sans-serif;
        font-size: 12px;
        fill: rgba(255,255,255,0.9);
        text-anchor: middle;
      }
      .arrow {
        stroke: #94A3B8;
        stroke-width: 2;
        marker-end: url(#arrowhead);
      }
    </style>
    
    <marker id="arrowhead" markerWidth="10" markerHeight="7" refX="9" refY="3.5" orient="auto">
      <polygon points="0 0, 10 3.5, 0 7" fill="#94A3B8"/>
    </marker>
  </defs>

  <!-- Background -->
  <rect width="100%" height="100%" fill="#F8FAFC"/>
  
  <!-- ===== COMPONENTS ===== -->
  <!-- Row 1: Client + API -->
  <g class="component">
    <rect x="50" y="100" width="200" height="100" class="component-rect" fill="url(#primaryGrad)"/>
    <text x="150" y="130" class="label">Web Client</text>
    <text x="150" y="150" class="subtext">Next.js + React</text>
  </g>
  
  <g class="component">
    <rect x="350" y="100" width="200" height="100" class="component-rect" fill="url(#primaryGrad)"/>
    <text x="450" y="130" class="label">Next.js API</text>
    <text x="450" y="150" class="subtext">Server-side Logic</text>
  </g>
  
  <!-- Connection -->
  <line x1="250" y1="150" x2="350" y2="150" class="arrow"/>
  <text x="300" y="140" font-family="Inter" font-size="12" fill="#64748B" text-anchor="middle">HTTPS</text>

  <!-- Row 2: Databases -->
  <g class="component">
    <rect x="50" y="300" width="200" height="100" class="component-rect" fill="url(#secondaryGrad)"/>
    <text x="150" y="330" class="label">MongoDB</text>
    <text x="150" y="350" class="subtext">Primary Database</text>
  </g>
  
  <g class="component">
    <rect x="350" y="300" width="200" height="100" class="component-rect" fill="url(#accentGrad)"/>
    <text x="450" y="330" class="label">Redis</text>
    <text x="450" y="350" class="subtext">Caching Layer</text>
  </g>
  
  <!-- Connections -->
  <line x1="150" y1="200" x2="150" y2="300" class="arrow"/>
  <line x1="450" y1="200" x2="450" y2="300" class="arrow"/>
  <line x1="250" y1="350" x2="350" y2="350" class="arrow"/>

  <!-- Row 3: Auth -->
  <g class="component">
    <rect x="200" y="500" width="200" height="100" class="component-rect" fill="url(#primaryGrad)"/>
    <text x="300" y="530" class="label">Auth0</text>
    <text x="300" y="550" class="subtext">Authentication</text>
  </g>
  
  <!-- Connection -->
  <line x1="300" y1="400" x2="300" y2="500" class="arrow"/>
  
  <!-- Legend -->
  <rect x="650" y="100" width="200" height="150" rx="12" fill="white" stroke="#E2E8F0"/>
  <text x="750" y="130" font-family="Inter" font-size="14" fill="#1E293B" text-anchor="middle" font-weight="600">Legend</text>
  <line x1="670" y1="150" x2="700" y2="150" class="arrow"/>
  <text x="730" y="153" font-family="Inter" font-size="12" fill="#475569">Data Flow</text>
  <rect x="670" y="170" width="16" height="16" rx="4" fill="url(#primaryGrad)"/>
  <text x="730" y="182" font-family="Inter" font-size="12" fill="#475569">Services</text>
  <rect x="670" y="195" width="16" height="16" rx="4" fill="url(#secondaryGrad)"/>
  <text x="730" y="207" font-family="Inter" font-size="12" fill="#475569">Databases</text>
</svg>